<svg width="187" height="86" viewBox="0 0 187 86" fill="none" xmlns="http://www.w3.org/2000/svg">
<path fill-rule="evenodd" clip-rule="evenodd" d="M19.1043 72.6597C18.3566 73.0743 17.4698 73.1857 16.6374 72.9697C15.8051 72.7537 15.0949 72.2277 14.6618 71.5067C14.4478 71.1506 14.3087 70.7571 14.2525 70.3488C14.1962 69.9405 14.224 69.5254 14.3341 69.1275C14.4443 68.7296 14.6346 68.3568 14.8942 68.0304C15.1538 67.704 15.4776 67.4305 15.8468 67.2256L47.2173 49.7856C47.5855 49.5802 47.9082 49.3065 48.1668 48.98C48.4254 48.6536 48.6149 48.2809 48.7243 47.8835C48.8338 47.486 48.861 47.0715 48.8045 46.6638C48.748 46.2561 48.6089 45.8632 48.3951 45.5076C47.9618 44.7867 47.2515 44.261 46.4192 44.0452C45.5869 43.8293 44.7002 43.9409 43.9526 44.3556L38.6164 47.3227L30.1445 52.0326C29.3968 52.4473 28.51 52.5587 27.6777 52.3427C26.8453 52.1267 26.1351 51.6007 25.702 50.8797C25.488 50.5236 25.3489 50.1301 25.2927 49.7218C25.2365 49.3135 25.2642 48.8984 25.3744 48.5005C25.4845 48.1026 25.6749 47.7298 25.9345 47.4034C26.1941 47.077 26.5178 46.8035 26.887 46.5986L35.3588 41.8886L48.8456 34.3906C49.2148 34.1858 49.5385 33.9123 49.7981 33.5859C50.0577 33.2595 50.2481 32.8866 50.3582 32.4888C50.4683 32.0909 50.4961 31.6758 50.4399 31.2675C50.3836 30.8592 50.2446 30.4657 50.0306 30.1096C49.5999 29.3928 48.8951 28.8687 48.0685 28.6505C47.242 28.4324 46.3599 28.5377 45.6128 28.9436L14.8508 46.0446C14.1032 46.4594 13.2165 46.571 12.3842 46.3551C11.5519 46.1393 10.8415 45.6136 10.4083 44.8927C10.1943 44.5366 10.0552 44.1431 9.999 43.7348C9.94277 43.3265 9.97053 42.9114 10.0807 42.5135C10.1908 42.1156 10.3811 41.7428 10.6407 41.4164C10.9003 41.09 11.2241 40.8165 11.5933 40.6116L28.8428 31.0216L64.9451 10.9516C75.8242 4.90265 89.749 8.51365 96.046 19.0166C102.344 29.5196 98.6289 42.9366 87.7498 48.9866L79.8617 53.3717L48.8187 70.6286C48.0711 71.0434 47.1844 71.155 46.3521 70.9391C45.5197 70.7233 44.8094 70.1976 44.3762 69.4766C44.1622 69.1206 44.0231 68.7271 43.9669 68.3188C43.9107 67.9104 43.9384 67.4954 44.0485 67.0975C44.1587 66.6997 44.349 66.3268 44.6086 66.0004C44.8682 65.674 45.192 65.4005 45.5612 65.1956L48.3899 63.6227L60.6224 56.8227C60.9919 56.6179 61.3158 56.3444 61.5756 56.018C61.8354 55.6915 62.0259 55.3186 62.1362 54.9206C62.2464 54.5226 62.2742 54.1074 62.218 53.6989C62.1617 53.2905 62.0226 52.8968 61.8085 52.5406C61.3759 51.8209 60.6673 51.2957 59.8366 51.0792C59.006 50.8627 58.1206 50.9725 57.3732 51.3846L19.1043 72.6586V72.6597Z" fill="#F2A278"/>
<path d="M66.2373 26.0977C66.0498 26.3789 65.8271 26.6426 65.5693 26.8887C65.3115 27.1348 65.0273 27.3516 64.7168 27.5391C64.4121 27.7266 64.0898 27.876 63.75 27.9873C63.4102 28.0928 63.0703 28.1455 62.7305 28.1455L62.5283 28.1631C62.3057 28.4443 62.1357 28.7168 62.0186 28.9805C61.9014 29.2441 61.8428 29.5547 61.8428 29.9121V35.5283C61.8428 36.3076 61.6758 37.002 61.3418 37.6113C61.0137 38.2148 60.5273 38.7363 59.8828 39.1758L59.5928 38.8418C59.6924 38.7305 59.7715 38.6045 59.8301 38.4639C59.8887 38.3174 59.9326 38.168 59.9619 38.0156C59.9912 37.8633 60.0088 37.7109 60.0146 37.5586C60.0264 37.4004 60.0322 37.251 60.0322 37.1104V30.9316C60.0322 30.6562 60.0879 30.3896 60.1992 30.1318C60.3164 29.8682 60.4629 29.6191 60.6387 29.3848C60.8145 29.1504 61.0078 28.9307 61.2188 28.7256C61.4355 28.5205 61.6436 28.333 61.8428 28.1631L58.9336 28.1455C58.7109 28.1455 58.5117 28.1689 58.3359 28.2158C58.166 28.2568 58.0078 28.3184 57.8613 28.4004C57.7148 28.4824 57.5742 28.585 57.4395 28.708C57.3047 28.8311 57.167 28.9746 57.0264 29.1387L56.7715 28.8662C56.9648 28.6025 57.1816 28.3242 57.4219 28.0312C57.668 27.7383 57.9316 27.4717 58.2129 27.2314C58.5 26.9912 58.8047 26.792 59.127 26.6338C59.4551 26.4756 59.7979 26.3965 60.1553 26.3965H63.9521C64.1045 26.3965 64.2744 26.3877 64.4619 26.3701C64.6553 26.3525 64.8486 26.3232 65.042 26.2822C65.2354 26.2412 65.417 26.1885 65.5869 26.124C65.7627 26.0537 65.9092 25.9658 66.0264 25.8604L66.2373 26.0977ZM77.1554 28.1631L75.6789 29.9473C75.55 29.5605 75.383 29.1914 75.1779 28.8398C74.9728 28.4883 74.7296 28.1807 74.4484 27.917C74.1671 27.6533 73.8478 27.4424 73.4904 27.2842C73.133 27.126 72.7345 27.0469 72.2951 27.0469C71.9787 27.0469 71.6857 27.1055 71.4162 27.2227C71.1466 27.334 70.9093 27.4922 70.7043 27.6973C70.505 27.8965 70.3468 28.1338 70.2296 28.4092C70.1183 28.6846 70.0627 28.9805 70.0627 29.2969C70.0627 29.625 70.1242 29.9326 70.2472 30.2197C70.3703 30.5068 70.5343 30.7676 70.7394 31.002C70.9445 31.2305 71.1789 31.4297 71.4425 31.5996C71.7121 31.7695 71.9904 31.9014 72.2775 31.9951C72.5646 32.0947 72.8664 32.2061 73.1828 32.3291C73.4992 32.4521 73.8097 32.5957 74.1144 32.7598C74.4191 32.9238 74.7091 33.1084 74.9845 33.3135C75.2599 33.5127 75.5031 33.7383 75.714 33.9902C75.925 34.2422 76.092 34.5234 76.215 34.834C76.338 35.1387 76.3996 35.4727 76.3996 35.8359C76.3996 36.3633 76.2824 36.8379 76.048 37.2598C75.8195 37.6758 75.5177 38.0273 75.1427 38.3145C74.7677 38.6016 74.3371 38.8213 73.8507 38.9736C73.3703 39.126 72.881 39.2021 72.383 39.2021C72.0431 39.2021 71.6974 39.1523 71.3459 39.0527C71.0002 38.9531 70.6662 38.8184 70.3439 38.6484C70.0275 38.4727 69.7287 38.2705 69.4474 38.042C69.172 37.8135 68.9318 37.5674 68.7267 37.3037L70.1505 35.6689C70.2384 35.9502 70.3908 36.249 70.6076 36.5654C70.8302 36.8818 71.088 37.1748 71.381 37.4443C71.674 37.7139 71.9875 37.9395 72.3214 38.1211C72.6613 38.2969 72.9894 38.3848 73.3058 38.3848C73.4875 38.3848 73.675 38.3379 73.8683 38.2441C74.0617 38.1504 74.2375 38.0303 74.3957 37.8838C74.5597 37.7314 74.6945 37.5674 74.8 37.3916C74.9054 37.2158 74.9582 37.043 74.9582 36.873C74.9582 36.6152 74.9054 36.3721 74.8 36.1436C74.6945 35.9092 74.5539 35.6895 74.3781 35.4844C74.2082 35.2793 74.0089 35.0918 73.7804 34.9219C73.5578 34.7461 73.3234 34.5908 73.0773 34.4561C72.8371 34.3154 72.5939 34.1953 72.3478 34.0957C72.1076 33.9902 71.8849 33.9082 71.6798 33.8496C71.2755 33.7266 70.88 33.5508 70.4933 33.3223C70.1125 33.0938 69.7726 32.8184 69.4738 32.4961C69.175 32.1738 68.9347 31.8135 68.7531 31.415C68.5714 31.0107 68.4806 30.5801 68.4806 30.123C68.4806 29.7305 68.5421 29.3584 68.6652 29.0068C68.7882 28.6553 68.9582 28.3301 69.175 28.0312C69.3918 27.7324 69.6466 27.4629 69.9396 27.2227C70.2326 26.9766 70.549 26.7715 70.8888 26.6074C71.2287 26.4375 71.5832 26.3086 71.9523 26.2207C72.3214 26.127 72.6935 26.0801 73.0685 26.0801C73.8888 26.0801 74.6505 26.2646 75.3537 26.6338C76.0568 26.9971 76.6574 27.5068 77.1554 28.1631ZM90.8157 37.0928C90.6575 37.3096 90.47 37.5439 90.2532 37.7959C90.0364 38.042 89.7991 38.2734 89.5413 38.4902C89.2835 38.7012 89.0081 38.877 88.7152 39.0176C88.428 39.1641 88.1321 39.2373 87.8275 39.2373C87.6224 39.2373 87.432 39.2051 87.2562 39.1406C87.0804 39.082 86.9163 39 86.764 38.8945C86.6175 38.7891 86.4769 38.6689 86.3421 38.5342C86.2132 38.3936 86.0902 38.25 85.973 38.1035C85.5863 37.623 85.2083 37.1396 84.8392 36.6533C84.4759 36.167 84.1214 35.6719 83.7757 35.168L83.8724 34.8076C84.2532 34.7432 84.637 34.6465 85.0238 34.5176C85.4163 34.3828 85.7913 34.2188 86.1488 34.0254C86.5062 33.8262 86.8402 33.5977 87.1507 33.3398C87.4613 33.0762 87.7308 32.7861 87.9593 32.4697C88.1878 32.1475 88.3665 31.7988 88.4954 31.4238C88.6302 31.043 88.6976 30.6357 88.6976 30.2021C88.6976 29.7861 88.6302 29.4023 88.4954 29.0508C88.3607 28.6992 88.1702 28.3945 87.9241 28.1367C87.6839 27.8789 87.3939 27.6797 87.054 27.5391C86.7142 27.3926 86.3363 27.3193 85.9202 27.3193C85.3929 27.3193 84.8978 27.3779 84.4349 27.4951C83.9779 27.6123 83.5413 27.7705 83.1253 27.9697C82.7152 28.1631 82.3196 28.3857 81.9388 28.6377C81.5579 28.8896 81.1829 29.1504 80.8138 29.4199L80.5413 29.1211C80.8929 28.7812 81.2708 28.4414 81.6751 28.1016C82.0853 27.7559 82.5452 27.4453 83.055 27.1699C83.5648 26.8945 84.1331 26.6719 84.7601 26.502C85.3929 26.3262 86.1048 26.2383 86.8958 26.2383C87.429 26.2383 87.9183 26.332 88.3636 26.5195C88.8148 26.707 89.2015 26.9678 89.5238 27.3018C89.846 27.6357 90.098 28.0312 90.2796 28.4883C90.4613 28.9453 90.5521 29.4434 90.5521 29.9824C90.5521 30.8203 90.3411 31.5498 89.9193 32.1709C89.4974 32.7861 88.9261 33.2871 88.2054 33.6738C88.1175 33.7207 88.0062 33.7822 87.8714 33.8584C87.7425 33.9346 87.5989 34.0166 87.4407 34.1045C87.2884 34.1924 87.1302 34.2803 86.9661 34.3682C86.8021 34.4561 86.6439 34.5381 86.4915 34.6143C86.3392 34.6846 86.1986 34.7461 86.0696 34.7988C85.9407 34.8516 85.8323 34.8838 85.7445 34.8955C85.8675 35.0596 86.0169 35.2559 86.1927 35.4844C86.3743 35.7129 86.5618 35.9473 86.7552 36.1875C86.9486 36.4277 87.139 36.6562 87.3265 36.873C87.5198 37.0898 87.6927 37.2656 87.845 37.4004C87.9915 37.5234 88.138 37.6318 88.2845 37.7256C88.4368 37.8193 88.6155 37.8662 88.8206 37.8662C88.9788 37.8662 89.137 37.834 89.2952 37.7695C89.4534 37.6992 89.6058 37.6113 89.7523 37.5059C89.8988 37.4004 90.0364 37.2861 90.1654 37.1631C90.2943 37.04 90.4085 36.9258 90.5081 36.8203L90.8157 37.0928ZM83.3802 38.6045L81.5696 39.2725V29.4199L83.3802 28.7783V38.6045Z" fill="#F2A278"/>
<path d="M66.2373 26.0977L67.0694 26.6524L67.4975 26.0102L66.9847 25.4333L66.2373 26.0977ZM64.7168 27.5391L64.1999 26.683L64.1927 26.6874L64.7168 27.5391ZM63.75 27.9873L64.0464 28.9424L64.0539 28.94L64.0613 28.9376L63.75 27.9873ZM62.7305 28.1455V27.1455H62.6871L62.6438 27.1493L62.7305 28.1455ZM62.5283 28.1631L62.4417 27.1668L62.012 27.2042L61.7443 27.5424L62.5283 28.1631ZM61.3418 37.6113L60.4649 37.1307L60.4633 37.1337L61.3418 37.6113ZM59.8828 39.1758L59.1278 39.8315L59.7111 40.5032L60.4461 40.002L59.8828 39.1758ZM59.5928 38.8418L58.8475 38.175L58.2598 38.8319L58.8377 39.4975L59.5928 38.8418ZM59.8301 38.4639L60.7532 38.8485L60.7559 38.8419L60.7586 38.8353L59.8301 38.4639ZM60.0146 37.5586L59.0174 37.4847L59.0161 37.5024L59.0154 37.5202L60.0146 37.5586ZM60.1992 30.1318L59.2854 29.7257L59.2812 29.7354L60.1992 30.1318ZM61.2188 28.7256L60.5315 27.999L60.5217 28.0086L61.2188 28.7256ZM61.8428 28.1631L62.4917 28.9239L64.5371 27.1793L61.8488 27.1631L61.8428 28.1631ZM58.9336 28.1455L58.9396 27.1455H58.9336V28.1455ZM58.3359 28.2158L58.5706 29.1879L58.5821 29.1851L58.5936 29.1821L58.3359 28.2158ZM57.0264 29.1387L56.2961 29.8218L57.0589 30.6373L57.7856 29.7895L57.0264 29.1387ZM56.7715 28.8662L55.9651 28.2748L55.4746 28.9437L56.0412 29.5494L56.7715 28.8662ZM57.4219 28.0312L56.6561 27.388L56.6486 27.3972L57.4219 28.0312ZM58.2129 27.2314L57.5711 26.4645L57.5634 26.4711L58.2129 27.2314ZM59.127 26.6338L58.6926 25.733L58.6863 25.7361L59.127 26.6338ZM64.4619 26.3701L64.3714 25.3742L64.3686 25.3745L64.4619 26.3701ZM65.5869 26.124L65.9416 27.059L65.95 27.0558L65.9583 27.0525L65.5869 26.124ZM66.0264 25.8604L66.7738 25.196L66.1053 24.444L65.3574 25.1171L66.0264 25.8604ZM65.4053 25.543C65.2607 25.7597 65.0863 25.9673 64.8789 26.1653L66.2598 27.612C66.568 27.3179 66.8389 26.9981 67.0694 26.6524L65.4053 25.543ZM64.8789 26.1653C64.6748 26.3601 64.4491 26.5326 64.1999 26.683L65.2337 28.3951C65.6056 28.1705 65.9482 27.9095 66.2598 27.612L64.8789 26.1653ZM64.1927 26.6874C63.9548 26.8338 63.704 26.9501 63.4387 27.037L64.0613 28.9376C64.4757 28.8019 64.8694 28.6193 65.2409 28.3907L64.1927 26.6874ZM63.4536 27.0322C63.2052 27.1093 62.9652 27.1455 62.7305 27.1455V29.1455C63.1755 29.1455 63.6151 29.0762 64.0464 28.9424L63.4536 27.0322ZM62.6438 27.1493L62.4417 27.1668L62.6149 29.1593L62.8171 29.1417L62.6438 27.1493ZM61.7443 27.5424C61.4816 27.8742 61.2631 28.2181 61.1047 28.5743L62.9324 29.3866C63.0084 29.2155 63.1297 29.0145 63.3124 28.7838L61.7443 27.5424ZM61.1047 28.5743C60.9189 28.9925 60.8428 29.4472 60.8428 29.9121H62.8428C62.8428 29.6621 62.8839 29.4957 62.9324 29.3866L61.1047 28.5743ZM60.8428 29.9121V35.5283H62.8428V29.9121H60.8428ZM60.8428 35.5283C60.8428 36.1604 60.7087 36.6858 60.4649 37.1307L62.2187 38.092C62.6429 37.3181 62.8428 36.4549 62.8428 35.5283H60.8428ZM60.4633 37.1337C60.2207 37.5797 59.8507 37.9874 59.3195 38.3496L60.4461 40.002C61.204 39.4853 61.8066 38.85 62.2203 38.089L60.4633 37.1337ZM60.6378 38.5201L60.3478 38.1861L58.8377 39.4975L59.1278 39.8315L60.6378 38.5201ZM60.338 39.5086C60.5138 39.3122 60.6524 39.0904 60.7532 38.8485L58.907 38.0793C58.8906 38.1186 58.871 38.1488 58.8475 38.175L60.338 39.5086ZM60.7586 38.8353C60.8404 38.6308 60.9024 38.4203 60.9439 38.2045L58.9799 37.8268C58.9628 37.9157 58.937 38.004 58.9016 38.0925L60.7586 38.8353ZM60.9439 38.2045C60.9826 38.0034 61.0061 37.8008 61.0139 37.597L59.0154 37.5202C59.0115 37.6211 58.9998 37.7232 58.9799 37.8268L60.9439 38.2045ZM61.0119 37.6325C61.0252 37.4527 61.0322 37.2785 61.0322 37.1104H59.0322C59.0322 37.2234 59.0275 37.348 59.0174 37.4847L61.0119 37.6325ZM61.0322 37.1104V30.9316H59.0322V37.1104H61.0322ZM61.0322 30.9316C61.0322 30.7953 61.0589 30.6634 61.1173 30.5283L59.2812 29.7354C59.1169 30.1159 59.0322 30.5172 59.0322 30.9316H61.0322ZM61.113 30.538C61.1992 30.344 61.3073 30.1599 61.4387 29.9848L59.8387 28.7848C59.6185 29.0783 59.4336 29.3923 59.2854 29.7257L61.113 30.538ZM61.4387 29.9848C61.5831 29.7922 61.742 29.6115 61.9158 29.4426L60.5217 28.0086C60.2736 28.2498 60.0458 28.5086 59.8387 28.7848L61.4387 29.9848ZM61.9059 29.4521C62.112 29.2572 62.3072 29.0813 62.4917 28.9239L61.1938 27.4023C60.9799 27.5847 60.7591 27.7838 60.5316 27.9991L61.9059 29.4521ZM61.8488 27.1631L58.9396 27.1455L58.9276 29.1455L61.8367 29.1631L61.8488 27.1631ZM58.9336 27.1455C58.6426 27.1455 58.3544 27.176 58.0783 27.2496L58.5936 29.1821C58.6691 29.1619 58.7793 29.1455 58.9336 29.1455V27.1455ZM58.1013 27.2437C57.8462 27.3053 57.6021 27.3994 57.3727 27.5279L58.3499 29.2729C58.4135 29.2373 58.4858 29.2084 58.5706 29.1879L58.1013 27.2437ZM57.3727 27.5279C57.1539 27.6504 56.9516 27.7993 56.7652 27.9695L58.1137 29.4465C58.1968 29.3706 58.2758 29.3144 58.3499 29.2729L57.3727 27.5279ZM56.7652 27.9695C56.5955 28.1245 56.4296 28.2983 56.2671 28.4879L57.7856 29.7895C57.9044 29.6509 58.0139 29.5376 58.1137 29.4465L56.7652 27.9695ZM57.7566 28.4555L57.5018 28.1831L56.0412 29.5494L56.2961 29.8218L57.7566 28.4555ZM57.5779 29.4576C57.7591 29.2105 57.9646 28.9465 58.1951 28.6653L56.6486 27.3972C56.3987 27.702 56.1706 27.9946 55.9651 28.2748L57.5779 29.4576ZM58.1876 28.6744C58.3994 28.4222 58.6244 28.1951 58.8624 27.9918L57.5634 26.4711C57.2388 26.7483 56.9365 27.0543 56.6562 27.3881L58.1876 28.6744ZM58.8546 27.9984C59.0828 27.8074 59.3204 27.6528 59.5676 27.5315L58.6863 25.7361C58.289 25.9312 57.9172 26.175 57.5712 26.4645L58.8546 27.9984ZM59.5613 27.5346C59.7566 27.4404 59.9512 27.3965 60.1553 27.3965V25.3965C59.6445 25.3965 59.1536 25.5108 58.6927 25.733L59.5613 27.5346ZM60.1553 27.3965H63.9521V25.3965H60.1553V27.3965ZM63.9521 27.3965C64.1419 27.3965 64.3436 27.3856 64.5553 27.3658L64.3686 25.3745C64.2052 25.3898 64.0671 25.3965 63.9521 25.3965V27.3965ZM64.5524 27.366C64.7858 27.3448 65.0182 27.3095 65.2495 27.2605L64.8345 25.304C64.679 25.337 64.5247 25.3603 64.3714 25.3742L64.5524 27.366ZM65.2495 27.2605C65.4886 27.2097 65.7198 27.1431 65.9416 27.059L65.2323 25.189C65.1142 25.2338 64.9821 25.2727 64.8345 25.304L65.2495 27.2605ZM65.9583 27.0525C66.2221 26.947 66.475 26.8019 66.6953 26.6036L65.3574 25.1171C65.3433 25.1297 65.3033 25.1604 65.2155 25.1955L65.9583 27.0525ZM65.279 26.5247L65.4899 26.762L66.9847 25.4333L66.7738 25.196L65.279 26.5247ZM77.1554 28.1631L77.9258 28.8007L78.4312 28.19L77.952 27.5585L77.1554 28.1631ZM75.6789 29.9473L74.7302 30.2635L75.3001 31.9734L76.4493 30.5848L75.6789 29.9473ZM71.4162 27.2227L71.7979 28.1469L71.8064 28.1434L71.8149 28.1397L71.4162 27.2227ZM70.2296 28.4092L69.3095 28.0176L69.3059 28.026L69.3025 28.0344L70.2296 28.4092ZM70.7394 31.002L69.9868 31.6605L69.9952 31.6699L70.7394 31.002ZM71.4425 31.5996L70.9008 32.4402L70.9092 32.4455L71.4425 31.5996ZM72.2775 31.9951L72.6053 31.0504L72.5966 31.0474L72.5879 31.0445L72.2775 31.9951ZM74.9845 33.3135L74.3872 34.1156L74.3984 34.1237L74.9845 33.3135ZM76.215 34.834L75.2853 35.2024L75.2878 35.2084L76.215 34.834ZM76.048 37.2598L75.1738 36.7741L75.1715 36.7783L76.048 37.2598ZM73.8507 38.9736L73.5518 38.0194L73.5485 38.0204L73.8507 38.9736ZM71.3459 39.0527L71.069 40.0137L71.0733 40.0149L71.3459 39.0527ZM70.3439 38.6484L69.8583 39.5226L69.8678 39.5279L69.8775 39.533L70.3439 38.6484ZM69.4474 38.042L68.8088 38.8116L68.8168 38.8181L69.4474 38.042ZM68.7267 37.3037L67.9726 36.6469L67.4319 37.2678L67.9374 37.9177L68.7267 37.3037ZM70.1505 35.6689L71.105 35.3707L70.5714 33.6631L69.3965 35.0122L70.1505 35.6689ZM70.6076 36.5654L69.7826 37.1307L69.7898 37.1409L70.6076 36.5654ZM72.3214 38.1211L71.8437 38.9996L71.8528 39.0045L71.862 39.0093L72.3214 38.1211ZM74.3957 37.8838L75.0751 38.6176L75.0761 38.6166L74.3957 37.8838ZM74.8 36.1436L73.888 36.5539L73.892 36.5626L74.8 36.1436ZM74.3781 35.4844L73.6081 36.1224L73.6134 36.1288L73.6188 36.1352L74.3781 35.4844ZM73.7804 34.9219L73.1608 35.7068L73.1721 35.7157L73.1837 35.7243L73.7804 34.9219ZM73.0773 34.4561L72.5721 35.3191L72.5845 35.3263L72.597 35.3332L73.0773 34.4561ZM72.3478 34.0957L71.9458 35.0113L71.9591 35.0172L71.9726 35.0226L72.3478 34.0957ZM71.6798 33.8496L71.3887 34.8063L71.3969 34.8088L71.4051 34.8111L71.6798 33.8496ZM70.4933 33.3223L69.9788 34.1798L69.9846 34.1832L70.4933 33.3223ZM68.7531 31.415L67.8409 31.8249L67.8432 31.8298L68.7531 31.415ZM69.9396 27.2227L70.5737 27.996L70.5828 27.9884L69.9396 27.2227ZM70.8888 26.6074L71.3236 27.5081L71.336 27.5018L70.8888 26.6074ZM71.9523 26.2207L72.1839 27.1935L72.1912 27.1918L72.1985 27.1899L71.9523 26.2207ZM75.3537 26.6338L74.8888 27.5192L74.8947 27.5222L75.3537 26.6338ZM76.385 27.5255L74.9085 29.3097L76.4493 30.5848L77.9258 28.8007L76.385 27.5255ZM76.6276 29.631C76.4769 29.1791 76.2815 28.7471 76.0417 28.336L74.3141 29.3437C74.4845 29.6357 74.623 29.942 74.7302 30.2635L76.6276 29.631ZM76.0417 28.336C75.7906 27.9056 75.488 27.5209 75.1323 27.1875L73.7645 28.6465C73.9713 28.8405 74.155 29.071 74.3141 29.3437L76.0417 28.336ZM75.1323 27.1875C74.7679 26.8458 74.3539 26.5728 73.8951 26.3698L73.0856 28.1986C73.3417 28.312 73.5664 28.4608 73.7645 28.6465L75.1323 27.1875ZM73.8951 26.3698C73.3953 26.1485 72.8566 26.0469 72.2951 26.0469V28.0469C72.6125 28.0469 72.8707 28.1035 73.0856 28.1986L73.8951 26.3698ZM72.2951 26.0469C71.8521 26.0469 71.4222 26.1296 71.0174 26.3056L71.8149 28.1397C71.9492 28.0813 72.1052 28.0469 72.2951 28.0469V26.0469ZM71.0344 26.2984C70.6439 26.4597 70.2959 26.6915 69.9972 26.9902L71.4114 28.4044C71.5228 28.2929 71.6494 28.2083 71.7979 28.1469L71.0344 26.2984ZM69.9972 26.9902C69.7018 27.2855 69.4737 27.6318 69.3095 28.0176L71.1498 28.8007C71.22 28.6358 71.3083 28.5075 71.4114 28.4044L69.9972 26.9902ZM69.3025 28.0344C69.14 28.4365 69.0627 28.8605 69.0627 29.2969H71.0627C71.0627 29.1005 71.0966 28.9327 71.1568 28.784L69.3025 28.0344ZM69.0627 29.2969C69.0627 29.7535 69.149 30.1958 69.3281 30.6136L71.1664 29.8258C71.0993 29.6694 71.0627 29.4965 71.0627 29.2969H69.0627ZM69.3281 30.6136C69.4923 30.9968 69.7125 31.3469 69.9868 31.6605L71.492 30.3434C71.3562 30.1882 71.2482 30.0168 71.1664 29.8258L69.3281 30.6136ZM69.9952 31.6699C70.2611 31.9661 70.5639 32.223 70.9008 32.4402L71.9842 30.759C71.7938 30.6363 71.6279 30.4948 71.4837 30.334L69.9952 31.6699ZM70.9092 32.4455C71.2447 32.657 71.5975 32.825 71.9671 32.9457L72.5879 31.0445C72.3833 30.9777 72.1795 30.8821 71.9758 30.7537L70.9092 32.4455ZM71.9497 32.9399C72.2239 33.035 72.5141 33.142 72.8203 33.2611L73.5452 31.3971C73.2186 31.2701 72.9053 31.1544 72.6053 31.0504L71.9497 32.9399ZM72.8203 33.2611C73.0978 33.369 73.3711 33.4953 73.6403 33.6402L74.5885 31.8793C74.2484 31.6962 73.9006 31.5353 73.5452 31.3971L72.8203 33.2611ZM73.6403 33.6402C73.9024 33.7814 74.1513 33.9398 74.3873 34.1155L75.5818 32.5114C75.267 32.277 74.9358 32.0663 74.5885 31.8793L73.6403 33.6402ZM74.3984 34.1237C74.6092 34.2762 74.7912 34.4457 74.9473 34.6322L76.4808 33.3483C76.215 33.0309 75.9107 32.7492 75.5707 32.5033L74.3984 34.1237ZM74.9473 34.6322C75.0885 34.8009 75.201 34.9894 75.2853 35.2023L77.1447 34.4656C76.9829 34.0574 76.7614 33.6835 76.4808 33.3483L74.9473 34.6322ZM75.2878 35.2084C75.3579 35.3822 75.3996 35.5874 75.3996 35.8359H77.3996C77.3996 35.3579 77.3182 34.8952 77.1422 34.4595L75.2878 35.2084ZM75.3996 35.8359C75.3996 36.2095 75.3182 36.5143 75.1739 36.7741L76.9222 37.7454C77.2466 37.1615 77.3996 36.5171 77.3996 35.8359H75.3996ZM75.1715 36.7783C75.0095 37.0733 74.799 37.3182 74.5348 37.5204L75.7506 39.1085C76.2365 38.7365 76.6295 38.2783 76.9245 37.7412L75.1715 36.7783ZM74.5348 37.5204C74.2597 37.7311 73.9354 37.8992 73.5518 38.0194L74.1497 39.9279C74.7387 39.7434 75.2757 39.4721 75.7506 39.1085L74.5348 37.5204ZM73.5485 38.0204C73.1646 38.1421 72.7772 38.2021 72.383 38.2021V40.2021C72.9848 40.2021 73.576 40.1098 74.153 39.9269L73.5485 38.0204ZM72.383 38.2021C72.142 38.2021 71.888 38.167 71.6185 38.0906L71.0733 40.0149C71.5069 40.1377 71.9443 40.2021 72.383 40.2021V38.2021ZM71.6227 38.0918C71.3435 38.0114 71.0729 37.9023 70.8103 37.7639L69.8775 39.533C70.2594 39.7344 70.6568 39.8949 71.069 40.0136L71.6227 38.0918ZM70.8295 37.7743C70.5643 37.6269 70.314 37.4576 70.078 37.2659L68.8168 38.8181C69.1434 39.0834 69.4907 39.3184 69.8583 39.5226L70.8295 37.7743ZM70.086 37.2724C69.8624 37.0869 69.6736 36.8924 69.5161 36.6898L67.9374 37.9177C68.19 38.2424 68.4816 38.54 68.8088 38.8116L70.086 37.2724ZM69.4808 37.9605L70.9046 36.3257L69.3965 35.0122L67.9726 36.6469L69.4808 37.9605ZM69.1961 35.9672C69.321 36.367 69.5256 36.7555 69.7826 37.1307L71.4325 36.0002C71.256 35.7425 71.1559 35.5333 71.105 35.3707L69.1961 35.9672ZM69.7898 37.1409C70.0547 37.5173 70.36 37.8638 70.704 38.1803L72.0581 36.7084C71.8161 36.4858 71.6058 36.2463 71.4254 35.9899L69.7898 37.1409ZM70.704 38.1803C71.0544 38.5027 71.4344 38.777 71.8437 38.9996L72.7992 37.2426C72.5406 37.1019 72.2935 36.925 72.0581 36.7084L70.704 38.1803ZM71.862 39.0093C72.3145 39.2433 72.7994 39.3848 73.3058 39.3848V37.3848C73.1794 37.3848 73.0081 37.3504 72.7809 37.2329L71.862 39.0093ZM73.3058 39.3848C73.6638 39.3848 73.9999 39.2917 74.3046 39.144L73.432 37.3443C73.35 37.3841 73.3111 37.3848 73.3058 37.3848V39.3848ZM74.3046 39.144C74.587 39.007 74.8447 38.8309 75.0751 38.6175L73.7163 37.15C73.6302 37.2297 73.5363 37.2938 73.432 37.3443L74.3046 39.144ZM75.0761 38.6166C75.3029 38.406 75.4993 38.1697 75.6575 37.9061L73.9425 36.8771C73.8897 36.9651 73.8166 37.0569 73.7152 37.151L75.0761 38.6166ZM75.6575 37.9061C75.8369 37.6071 75.9582 37.2584 75.9582 36.873H73.9582C73.9582 36.8636 73.9589 36.8554 73.9599 36.849C73.9609 36.8426 73.9619 36.839 73.9621 36.8383C73.9625 36.8371 73.9588 36.85 73.9425 36.8771L75.6575 37.9061ZM75.9582 36.873C75.9582 36.4742 75.8755 36.0877 75.7079 35.7245L73.892 36.5626C73.9353 36.6565 73.9582 36.7563 73.9582 36.873H75.9582ZM75.7119 35.7332C75.5653 35.4075 75.3721 35.1074 75.1373 34.8336L73.6188 36.1352C73.7357 36.2715 73.8237 36.4109 73.888 36.5539L75.7119 35.7332ZM75.1481 34.8464C74.9238 34.5756 74.6654 34.3337 74.3771 34.1194L73.1837 35.7243C73.3525 35.8498 73.4925 35.983 73.6081 36.1224L75.1481 34.8464ZM74.4001 34.137C74.1341 33.927 73.8532 33.7408 73.5576 33.579L72.597 35.3332C72.7936 35.4408 72.9814 35.5652 73.1608 35.7068L74.4001 34.137ZM73.5825 33.593C73.3025 33.4292 73.016 33.2874 72.723 33.1688L71.9726 35.0226C72.1718 35.1033 72.3716 35.2017 72.5721 35.3191L73.5825 33.593ZM72.7498 33.1801C72.4772 33.0604 72.2116 32.9615 71.9546 32.8881L71.4051 34.8111C71.5583 34.8549 71.7379 34.9201 71.9458 35.0113L72.7498 33.1801ZM71.971 32.8929C71.6474 32.7944 71.3246 32.6519 71.002 32.4613L69.9846 34.1832C70.4355 34.4496 70.9037 34.6587 71.3887 34.8063L71.971 32.8929ZM71.0078 32.4648C70.707 32.2843 70.441 32.0685 70.2071 31.8162L68.7405 33.176C69.1042 33.5683 69.5179 33.9032 69.9788 34.1798L71.0078 32.4648ZM70.2071 31.8162C69.9806 31.572 69.8001 31.3011 69.663 31.0002L67.8432 31.8298C68.0693 32.3259 68.3693 32.7757 68.7405 33.176L70.2071 31.8162ZM69.6653 31.0052C69.5433 30.7339 69.4806 30.4433 69.4806 30.123H67.4806C67.4806 30.7168 67.5996 31.2876 67.8409 31.8249L69.6653 31.0052ZM69.4806 30.123C69.4806 29.8368 69.5251 29.5769 69.6091 29.3372L67.7213 28.6765C67.5592 29.1398 67.4806 29.6241 67.4806 30.123H69.4806ZM69.6091 29.3372C69.7003 29.0765 69.8252 28.838 69.9844 28.6185L68.3655 27.444C68.0912 27.8222 67.8762 28.234 67.7213 28.6765L69.6091 29.3372ZM69.9844 28.6185C70.1496 28.3907 70.3451 28.1833 70.5737 27.9959L69.3055 26.4494C68.9481 26.7424 68.6339 27.0741 68.3655 27.444L69.9844 28.6185ZM70.5828 27.9884C70.8131 27.795 71.0596 27.6354 71.3236 27.508L70.4541 25.7069C70.0384 25.9076 69.6521 26.1582 69.2964 26.457L70.5828 27.9884ZM71.336 27.5018C71.6074 27.3662 71.8895 27.2636 72.1839 27.1935L71.7207 25.2479C71.2768 25.3536 70.85 25.5088 70.4416 25.713L71.336 27.5018ZM72.1985 27.1899C72.4884 27.1163 72.7778 27.0801 73.0685 27.0801V25.0801C72.6092 25.0801 72.1545 25.1376 71.7062 25.2515L72.1985 27.1899ZM73.0685 27.0801C73.7324 27.0801 74.3339 27.2279 74.8888 27.5192L75.8185 25.7484C74.9672 25.3014 74.0452 25.0801 73.0685 25.0801V27.0801ZM74.8947 27.5222C75.4601 27.8144 75.947 28.225 76.3589 28.7676L77.952 27.5585C77.3678 26.7887 76.6535 26.1798 75.8127 25.7454L74.8947 27.5222ZM90.8157 37.0928L91.6235 37.6822L92.1598 36.9474L91.4788 36.3442L90.8157 37.0928ZM90.2532 37.7959L91.0037 38.457L91.0113 38.4481L90.2532 37.7959ZM89.5413 38.4902L90.1746 39.2643L90.1849 39.2556L89.5413 38.4902ZM88.7152 39.0176L88.2824 38.1161L88.2715 38.1213L88.2607 38.1268L88.7152 39.0176ZM87.2562 39.1406L87.6004 38.2017L87.5865 38.1966L87.5724 38.1919L87.2562 39.1406ZM86.764 38.8945L86.1797 39.7061L86.1872 39.7115L86.1948 39.7167L86.764 38.8945ZM86.3421 38.5342L85.605 39.2099L85.6196 39.2259L85.635 39.2413L86.3421 38.5342ZM85.973 38.1035L86.7538 37.4788L86.752 37.4765L85.973 38.1035ZM84.8392 36.6533L84.038 37.2518L84.0426 37.2579L84.8392 36.6533ZM83.7757 35.168L82.8099 34.9088L82.6905 35.3538L82.9511 35.7337L83.7757 35.168ZM83.8724 34.8076L83.7055 33.8216L83.0728 33.9287L82.9065 34.5485L83.8724 34.8076ZM85.0238 34.5176L85.34 35.4663L85.3484 35.4634L85.0238 34.5176ZM86.1488 34.0254L86.6246 34.905L86.6356 34.8989L86.1488 34.0254ZM87.1507 33.3398L87.7895 34.1093L87.7979 34.1021L87.1507 33.3398ZM87.9593 32.4697L88.77 33.0552L88.775 33.0482L87.9593 32.4697ZM88.4954 31.4238L87.5527 31.0902L87.5497 31.0987L88.4954 31.4238ZM87.9241 28.1367L87.1925 28.8185L87.2008 28.8272L87.9241 28.1367ZM87.054 27.5391L86.6582 28.4574L86.6649 28.4603L86.6717 28.4631L87.054 27.5391ZM84.4349 27.4951L84.1895 26.5257L84.1865 26.5265L84.4349 27.4951ZM83.1253 27.9697L83.5517 28.8743L83.5572 28.8716L83.1253 27.9697ZM80.8138 29.4199L80.0748 30.0937L80.6791 30.7564L81.4035 30.2275L80.8138 29.4199ZM80.5413 29.1211L79.8463 28.4021L79.148 29.0771L79.8024 29.7948L80.5413 29.1211ZM81.6751 28.1016L82.3186 28.867L82.3196 28.8662L81.6751 28.1016ZM84.7601 26.502L85.0217 27.4672L85.0277 27.4655L84.7601 26.502ZM88.3636 26.5195L87.9755 27.4412L87.9798 27.443L88.3636 26.5195ZM89.9193 32.1709L90.744 32.7364L90.7465 32.7328L89.9193 32.1709ZM88.2054 33.6738L88.676 34.5562L88.6782 34.555L88.2054 33.6738ZM87.8714 33.8584L87.3793 32.9878L87.371 32.9926L87.3627 32.9975L87.8714 33.8584ZM87.4407 34.1045L86.9551 33.2303L86.948 33.2343L86.941 33.2383L87.4407 34.1045ZM86.4915 34.6143L86.9106 35.5222L86.9248 35.5157L86.9387 35.5087L86.4915 34.6143ZM85.7445 34.8955L85.6123 33.9043L83.9202 34.1299L84.9445 35.4955L85.7445 34.8955ZM86.1927 35.4844L85.4001 36.0941L85.4049 36.1004L85.4099 36.1066L86.1927 35.4844ZM87.3265 36.873L86.5701 37.5272L86.5751 37.533L86.5802 37.5387L87.3265 36.873ZM87.845 37.4004L87.1825 38.1494L87.192 38.1579L87.2018 38.1661L87.845 37.4004ZM88.2845 37.7256L87.7454 38.5679L87.7529 38.5726L87.7604 38.5772L88.2845 37.7256ZM89.2952 37.7695L89.6725 38.6956L89.687 38.6897L89.7014 38.6833L89.2952 37.7695ZM90.5081 36.8203L91.1712 36.0717L90.4461 35.4296L89.7811 36.1337L90.5081 36.8203ZM83.3802 38.6045L83.7263 39.5427L84.3802 39.3014V38.6045H83.3802ZM81.5696 39.2725H80.5696V40.7073L81.9158 40.2106L81.5696 39.2725ZM81.5696 29.4199L81.2356 28.4774L80.5696 28.7134V29.4199H81.5696ZM83.3802 28.7783H84.3802V27.363L83.0462 27.8358L83.3802 28.7783ZM90.008 36.5033C89.8687 36.6942 89.6985 36.9074 89.4952 37.1437L91.0113 38.4481C91.2416 38.1805 91.4464 37.925 91.6235 37.6822L90.008 36.5033ZM89.5029 37.1349C89.3199 37.3426 89.1184 37.5393 88.8977 37.7249L90.1849 39.2556C90.4798 39.0076 90.753 38.7414 91.0036 38.4569L89.5029 37.1349ZM88.9081 37.7163C88.7103 37.8781 88.5019 38.0107 88.2824 38.1161L89.1479 39.9191C89.5143 39.7432 89.8568 39.5242 90.1746 39.2642L88.9081 37.7163ZM88.2607 38.1268C88.1059 38.2058 87.965 38.2373 87.8275 38.2373V40.2373C88.2993 40.2373 88.7502 40.1224 89.1696 39.9083L88.2607 38.1268ZM87.8275 38.2373C87.7286 38.2373 87.6559 38.2221 87.6004 38.2017L86.9119 40.0795C87.208 40.1881 87.5161 40.2373 87.8275 40.2373V38.2373ZM87.5724 38.1919C87.4865 38.1633 87.4076 38.1239 87.3332 38.0723L86.1948 39.7167C86.425 39.8761 86.6743 40.0007 86.9399 40.0893L87.5724 38.1919ZM87.3483 38.083C87.2478 38.0107 87.148 37.9259 87.0492 37.8271L85.635 39.2413C85.8057 39.412 85.9872 39.5675 86.1797 39.7061L87.3483 38.083ZM87.0793 37.8585C86.9652 37.7341 86.8568 37.6075 86.7538 37.4788L85.1921 38.7282C85.3235 38.8925 85.4612 39.053 85.605 39.2099L87.0793 37.8585ZM86.752 37.4765C86.3711 37.0034 85.9991 36.5274 85.6357 36.0487L84.0426 37.2579C84.4176 37.7519 84.8014 38.2427 85.194 38.7305L86.752 37.4765ZM85.6403 36.0549C85.2851 35.5794 84.9385 35.0952 84.6003 34.6023L82.9511 35.7337C83.3043 36.2486 83.6667 36.7546 84.038 37.2518L85.6403 36.0549ZM84.7415 35.4271L84.8382 35.0667L82.9065 34.5485L82.8099 34.9088L84.7415 35.4271ZM84.0392 35.7936C84.4735 35.7201 84.9072 35.6105 85.34 35.4663L84.7075 33.5689C84.3669 33.6824 84.033 33.7662 83.7055 33.8216L84.0392 35.7936ZM85.3484 35.4634C85.792 35.3111 86.2177 35.1251 86.6246 34.9049L85.6729 33.1458C85.365 33.3124 85.0406 33.4545 84.6991 33.5718L85.3484 35.4634ZM86.6356 34.8989C87.046 34.6701 87.4309 34.4069 87.7895 34.1093L86.5119 32.5704C86.2494 32.7884 85.9663 32.9822 85.6619 33.1519L86.6356 34.8989ZM87.7979 34.1021C88.1672 33.7886 88.4923 33.4397 88.77 33.0552L87.1486 31.8842C86.9693 32.1325 86.7553 32.3637 86.5035 32.5775L87.7979 34.1021ZM88.775 33.0482C89.0589 32.6478 89.2813 32.2138 89.4411 31.7489L87.5497 31.0987C87.4517 31.3839 87.3167 31.6471 87.1436 31.8913L88.775 33.0482ZM89.4382 31.7574C89.6135 31.2618 89.6976 30.741 89.6976 30.2021H87.6976C87.6976 30.5305 87.6469 30.8241 87.5527 31.0902L89.4382 31.7574ZM89.6976 30.2021C89.6976 29.6766 89.6121 29.1701 89.4292 28.6928L87.5617 29.4087C87.6483 29.6346 87.6976 29.8957 87.6976 30.2021H89.6976ZM89.4292 28.6928C89.2497 28.2247 88.9901 27.8052 88.6475 27.4462L87.2008 28.8272C87.3503 28.9839 87.4716 29.1738 87.5617 29.4087L89.4292 28.6928ZM88.6557 27.455C88.3135 27.0877 87.9027 26.808 87.4364 26.615L86.6717 28.4631C86.885 28.5514 87.0543 28.6701 87.1925 28.8184L88.6557 27.455ZM87.4499 26.6207C86.9704 26.4141 86.4555 26.3193 85.9202 26.3193V28.3193C86.217 28.3193 86.458 28.3711 86.6582 28.4574L87.4499 26.6207ZM85.9202 26.3193C85.3186 26.3193 84.7404 26.3862 84.1895 26.5257L84.6803 28.4645C85.0551 28.3696 85.4671 28.3193 85.9202 28.3193V26.3193ZM84.1865 26.5265C83.6677 26.6595 83.1696 26.8398 82.6934 27.0678L83.5572 28.8716C83.913 28.7012 84.288 28.5651 84.6833 28.4638L84.1865 26.5265ZM82.6989 27.0652C82.245 27.2792 81.8077 27.5254 81.3871 27.8037L82.4905 29.4717C82.8316 29.2461 83.1853 29.047 83.5517 28.8743L82.6989 27.0652ZM81.3871 27.8037C80.9933 28.0641 80.6057 28.3337 80.2241 28.6123L81.4035 30.2275C81.7602 29.9671 82.1225 29.7152 82.4905 29.4717L81.3871 27.8037ZM81.5527 28.7462L81.2803 28.4473L79.8024 29.7948L80.0748 30.0937L81.5527 28.7462ZM81.2364 29.8401C81.57 29.5175 81.9306 29.1932 82.3186 28.867L81.0317 27.3361C80.611 27.6896 80.2158 28.045 79.8463 28.4021L81.2364 29.8401ZM82.3196 28.8662C82.6735 28.5679 83.076 28.2952 83.5303 28.0497L82.5797 26.2901C82.0145 26.5954 81.4971 26.9438 81.0306 27.3369L82.3196 28.8662ZM83.5303 28.0497C83.9648 27.815 84.4602 27.6193 85.0217 27.4671L84.4985 25.5368C83.8061 25.7244 83.1648 25.974 82.5797 26.2901L83.5303 28.0497ZM85.0277 27.4655C85.5578 27.3182 86.1775 27.2383 86.8958 27.2383V25.2383C86.0321 25.2383 85.228 25.3341 84.4924 25.5384L85.0277 27.4655ZM86.8958 27.2383C87.3096 27.2383 87.6652 27.3105 87.9755 27.4412L88.7517 25.5979C88.1713 25.3536 87.5485 25.2383 86.8958 25.2383V27.2383ZM87.9798 27.443C88.3113 27.5807 88.5819 27.7658 88.8041 27.9961L90.2434 26.6074C89.821 26.1697 89.3182 25.8333 88.7474 25.5961L87.9798 27.443ZM88.8041 27.9961C89.0307 28.2309 89.2138 28.5142 89.3503 28.8576L91.2089 28.1189C90.9821 27.5483 90.6613 27.0405 90.2434 26.6074L88.8041 27.9961ZM89.3503 28.8576C89.4809 29.1863 89.5521 29.5576 89.5521 29.9824H91.5521C91.5521 29.3291 91.4416 28.7043 91.2089 28.1189L89.3503 28.8576ZM89.5521 29.9824C89.5521 30.6441 89.3885 31.1726 89.092 31.609L90.7465 32.7328C91.2938 31.927 91.5521 30.9965 91.5521 29.9824H89.5521ZM89.0945 31.6054C88.7715 32.0764 88.3263 32.4741 87.7326 32.7927L88.6782 34.555C89.5259 34.1001 90.2232 33.4959 90.744 32.7364L89.0945 31.6054ZM87.7348 32.7915C87.6369 32.8437 87.5178 32.9096 87.3793 32.9878L88.3635 34.729C88.4945 34.6549 88.5981 34.5977 88.676 34.5562L87.7348 32.7915ZM87.3627 32.9975C87.2428 33.0683 87.1071 33.1459 86.9551 33.2303L87.9264 34.9786C88.0908 34.8873 88.2422 34.8008 88.3801 34.7193L87.3627 32.9975ZM86.941 33.2383C86.7983 33.3207 86.6493 33.4035 86.4939 33.4867L87.4384 35.2496C87.6111 35.1571 87.7785 35.0641 87.9405 34.9707L86.941 33.2383ZM86.4939 33.4867C86.3374 33.5705 86.1875 33.6482 86.0443 33.7198L86.9387 35.5087C87.1002 35.428 87.2668 35.3416 87.4384 35.2496L86.4939 33.4867ZM86.0725 33.7063C85.9309 33.7716 85.8039 33.8271 85.691 33.8733L86.4483 35.7244C86.5932 35.6651 86.7475 35.5975 86.9106 35.5222L86.0725 33.7063ZM85.691 33.8733C85.6505 33.8899 85.6229 33.8992 85.6067 33.904C85.5896 33.9091 85.5927 33.9069 85.6123 33.9043L85.8766 35.8867C86.0829 35.8592 86.2798 35.7933 86.4483 35.7244L85.691 33.8733ZM84.9445 35.4955C85.0707 35.6638 85.2227 35.8635 85.4001 36.0941L86.9853 34.8747C86.8111 34.6482 86.6643 34.4553 86.5445 34.2955L84.9445 35.4955ZM85.4099 36.1066C85.5928 36.3368 85.7816 36.5728 85.9762 36.8145L87.5342 35.5605C87.3421 35.3218 87.1558 35.089 86.9755 34.8621L85.4099 36.1066ZM85.9762 36.8145C86.1764 37.0632 86.3744 37.3008 86.5701 37.5272L88.0828 36.2189C87.9036 36.0117 87.7207 35.7922 87.5342 35.5605L85.9762 36.8145ZM86.5802 37.5387C86.7897 37.7736 86.9911 37.9801 87.1825 38.1494L88.5076 36.6514C88.3943 36.5512 88.25 36.4061 88.0728 36.2074L86.5802 37.5387ZM87.2018 38.1661C87.3781 38.3142 87.5592 38.4487 87.7454 38.5679L88.8235 36.8833C88.7168 36.815 88.6049 36.7327 88.4882 36.6347L87.2018 38.1661ZM87.7604 38.5772C88.0924 38.7815 88.4582 38.8662 88.8206 38.8662V36.8662C88.7944 36.8662 88.7845 36.8633 88.7865 36.8638C88.7874 36.864 88.7903 36.8648 88.7947 36.8667C88.7991 36.8686 88.8039 36.871 88.8086 36.8739L87.7604 38.5772ZM88.8206 38.8662C89.1182 38.8662 89.4042 38.805 89.6725 38.6956L88.9179 36.8434C88.8699 36.863 88.8394 36.8662 88.8206 36.8662V38.8662ZM89.7014 38.6833C89.9249 38.584 90.1367 38.4613 90.3366 38.3174L89.168 36.6943C89.0748 36.7614 88.9819 36.8145 88.8891 36.8557L89.7014 38.6833ZM90.3366 38.3174C90.52 38.1854 90.6932 38.0417 90.8558 37.8864L89.4749 36.4397C89.3797 36.5306 89.2775 36.6154 89.168 36.6943L90.3366 38.3174ZM90.8558 37.8864C90.9945 37.754 91.1214 37.6274 91.2351 37.5069L89.7811 36.1337C89.6957 36.2242 89.594 36.326 89.4749 36.4397L90.8558 37.8864ZM89.8451 37.5689L90.1527 37.8414L91.4788 36.3442L91.1712 36.0717L89.8451 37.5689ZM83.0341 37.6663L81.2235 38.3343L81.9158 40.2106L83.7263 39.5427L83.0341 37.6663ZM82.5696 39.2725V29.4199H80.5696V39.2725H82.5696ZM81.9037 30.3625L83.7142 29.7209L83.0462 27.8358L81.2356 28.4774L81.9037 30.3625ZM82.3802 28.7783V38.6045H84.3802V28.7783H82.3802Z" fill="#F2F2F2"/>
</svg>
