<svg width="506" height="872" viewBox="0 0 506 872" fill="none" xmlns="http://www.w3.org/2000/svg">
<g clip-path="url(#clip0)">
<path fill-rule="evenodd" clip-rule="evenodd" d="M190.784 715.008C199.515 725.875 172.323 727.599 190.784 748.422C209.246 769.246 167.668 759.289 158.937 748.422L1.20367 582.899C0.276107 429.677 1.20372 116.877 1.20439 -1.76745C-59.9122 -77.8425 61.9427 -78.3122 1.20439 -1.76745L326.667 403.354L326.666 403.355L347.813 429.677C356.544 440.545 356.587 458.219 347.911 469.154C339.234 480.09 325.122 480.144 316.391 469.276L295.245 442.953L294.987 442.633C286.256 431.765 272.144 431.819 263.467 442.754C254.799 453.677 254.834 471.326 263.536 482.196L358.856 600.847C367.587 611.715 367.631 629.39 358.954 640.324C350.277 651.26 336.165 651.314 327.434 640.446L231.292 520.772C222.554 510.022 208.513 510.115 199.867 521.01C191.191 531.946 191.234 549.621 199.965 560.488L200.98 561.751L232.892 601.476C241.623 612.343 241.666 630.018 232.99 640.953C224.313 651.889 210.201 651.943 201.471 641.075L122.98 543.375C114.244 532.594 100.184 532.677 91.5302 543.583C82.8965 554.464 82.8972 572.018 91.4991 582.899L190.784 715.008Z" fill="#002E4D"/>
</g>
<defs>
<clipPath id="clip0">
<rect width="506" height="872" fill="white"/>
</clipPath>
</defs>
</svg>
