<svg width="1063" height="1064" viewBox="0 0 1063 1064" fill="none" xmlns="http://www.w3.org/2000/svg">
<g clip-path="url(#clip0)">
<path fill-rule="evenodd" clip-rule="evenodd" d="M1320.12 1020.17C1331.36 1031.39 1331.42 1049.64 1320.25 1060.93C1309.08 1072.22 1290.91 1072.28 1279.67 1061.06L1092.27 873.986L833.812 615.963L673.276 455.7C594.595 377.152 594.2 249.409 672.394 170.377C750.588 91.3448 877.759 90.9518 956.44 169.499L1375.44 587.785L1375.44 587.786L1402.66 614.963C1413.9 626.184 1413.96 644.433 1402.79 655.723C1391.61 667.014 1373.45 667.07 1362.21 655.849L1334.98 628.671V628.672L1334.65 628.34C1323.41 617.119 1305.24 617.175 1294.07 628.465C1282.91 639.743 1282.96 657.965 1294.16 669.189L1416.88 791.695C1428.12 802.916 1428.17 821.165 1417 832.455C1405.83 843.746 1387.66 843.802 1376.42 832.581L1252.65 709.018C1241.4 697.919 1223.33 698.015 1212.2 709.264C1201.03 720.555 1201.08 738.804 1212.32 750.025L1213.63 751.329V751.33L1254.71 792.344C1265.95 803.565 1266.01 821.814 1254.84 833.104C1243.67 844.395 1225.5 844.451 1214.26 833.23L1113.21 732.355C1101.97 721.224 1083.87 721.31 1072.73 732.57C1061.61 743.805 1061.61 761.929 1072.69 773.164L1320.12 1020.17Z" fill="#002E4D"/>
<mask id="mask0" style="mask-type:alpha" maskUnits="userSpaceOnUse" x="486" y="-17" width="852" height="854">
<path d="M486.127 -17H1337.86V836.796H486.127V-17Z" fill="white"/>
<path fill-rule="evenodd" clip-rule="evenodd" d="M1215.44 605.588C1225.27 615.402 1225.32 631.361 1215.55 641.236C1205.78 651.11 1189.9 651.159 1180.07 641.345L1014.23 475.791C1004.4 466.052 988.562 466.126 978.817 475.975C969.048 485.849 969.097 501.809 978.927 511.622L980.07 512.763H980.069L989.873 522.55C999.703 532.364 999.752 548.324 989.983 558.198C980.214 568.072 964.325 568.121 954.495 558.307L892.282 496.199C882.448 486.435 866.596 486.5 856.843 496.358C847.114 506.191 847.122 522.059 856.831 531.883L963.206 638.078C973.036 647.891 973.086 663.851 963.317 673.725C953.547 683.599 937.659 683.648 927.829 673.835L647.898 394.378L645.592 392.076C576.782 323.382 576.436 211.663 644.821 142.545C713.206 73.4262 824.425 73.0832 893.236 141.777L1121.58 369.734V369.735L1139.47 387.595C1149.3 397.409 1149.35 413.369 1139.58 423.243C1129.81 433.117 1113.92 433.166 1104.09 423.353L1086.2 405.492L1019.61 339.011C1009.78 329.198 993.89 329.247 984.121 339.121C974.383 348.964 974.401 364.854 984.139 374.675L1215.44 605.588V605.588Z" fill="black"/>
</mask>
<g mask="url(#mask0)">
<path fill-rule="evenodd" clip-rule="evenodd" d="M1215.44 605.587C1225.27 615.401 1225.32 631.36 1215.55 641.235C1205.78 651.109 1189.9 651.158 1180.07 641.344L1014.23 475.79C1004.4 466.051 988.562 466.125 978.817 475.974C969.048 485.848 969.097 501.808 978.927 511.621L980.07 512.762H980.069L989.873 522.549C999.703 532.363 999.752 548.323 989.983 558.197C980.214 568.071 964.325 568.12 954.495 558.306L892.282 496.198C882.448 486.434 866.596 486.499 856.843 496.357C847.114 506.19 847.122 522.058 856.831 531.882L963.206 638.077C973.036 647.89 973.086 663.85 963.317 673.724C953.547 683.598 937.659 683.647 927.829 673.834L647.898 394.377L645.592 392.075C576.782 323.381 576.436 211.662 644.821 142.544C713.206 73.4252 824.425 73.0822 893.236 141.776L1121.58 369.733V369.734L1139.47 387.594C1149.3 397.408 1149.35 413.368 1139.58 423.242C1129.81 433.116 1113.92 433.165 1104.09 423.352L1086.2 405.491L1019.61 339.01C1009.78 329.197 993.89 329.246 984.121 339.12C974.383 348.963 974.401 364.853 984.139 374.674L1215.44 605.587V605.587Z" fill="#153956"/>
<path d="M1014.23 475.79L1031.11 458.73L1031.08 458.695L1031.04 458.661L1014.23 475.79V475.79ZM980.071 512.762L997.056 529.718L1013.94 512.657L996.95 495.701L980.071 512.762V512.762ZM980.07 512.762L963.085 495.806L946.205 512.867L963.19 529.823L980.07 512.762ZM989.874 522.549L972.994 539.61L989.874 522.549V522.549ZM892.283 496.198L909.163 479.138L909.14 479.115L909.117 479.092L892.283 496.198V496.198ZM856.832 531.882L839.838 548.828L839.895 548.885L839.952 548.942L856.832 531.882V531.882ZM927.83 673.834L910.95 690.894L927.83 673.834ZM647.899 394.377L631.018 411.437L631.019 411.438L647.899 394.377ZM645.593 392.075L662.474 375.015L662.473 375.014L645.593 392.075V392.075ZM1121.58 369.733L1138.57 386.69L1155.45 369.629L1138.46 352.673L1121.58 369.733ZM1121.58 369.734L1104.6 352.778L1087.72 369.838L1104.7 386.795L1121.58 369.734ZM1104.09 423.352L1120.97 406.291L1104.09 423.352ZM1086.2 405.491L1069.32 422.552H1069.32L1086.2 405.491ZM1019.61 339.01L1036.49 321.95L1019.61 339.01V339.01ZM984.14 374.674L967.173 391.648L967.216 391.692L967.26 391.735L984.14 374.674ZM1232.54 658.191C1251.63 638.894 1251.54 607.704 1232.32 588.526L1198.56 622.648C1199.01 623.097 1199.02 623.827 1198.57 624.278L1232.54 658.191ZM1163.19 658.405C1182.4 677.583 1213.45 677.487 1232.54 658.191L1198.57 624.278C1198.46 624.386 1198.34 624.471 1198.2 624.529C1198.06 624.588 1197.91 624.618 1197.76 624.618C1197.61 624.619 1197.46 624.59 1197.32 624.532C1197.18 624.475 1197.05 624.39 1196.95 624.283L1163.19 658.405V658.405ZM997.352 492.851L1163.19 658.405L1196.95 624.283L1031.11 458.73L997.352 492.851V492.851ZM1031.04 458.661C1011.82 439.626 980.877 439.77 961.833 459.018L995.803 492.93C995.909 492.823 996.034 492.738 996.173 492.68C996.311 492.622 996.46 492.591 996.61 492.59C996.76 492.589 996.909 492.618 997.049 492.674C997.188 492.731 997.314 492.815 997.421 492.92L1031.04 458.661ZM961.833 459.018C942.742 478.314 942.838 509.504 962.049 528.682L995.808 494.561C995.592 494.345 995.471 494.052 995.47 493.747C995.469 493.441 995.589 493.148 995.803 492.93L961.833 459.018V459.018ZM962.049 528.682L963.191 529.822L996.95 495.701L995.808 494.561L962.049 528.682ZM963.086 495.805L963.085 495.806L997.055 529.718H997.056L963.086 495.805V495.805ZM963.19 529.823L972.994 539.61L1006.75 505.488L996.95 495.701L963.19 529.823ZM972.994 539.61C973.444 540.059 973.446 540.789 972.999 541.24L1006.97 575.153C1026.06 555.856 1025.96 524.666 1006.75 505.488L972.994 539.61V539.61ZM972.999 541.24C972.893 541.348 972.767 541.433 972.628 541.492C972.489 541.55 972.34 541.58 972.189 541.581C972.038 541.581 971.888 541.552 971.749 541.494C971.609 541.437 971.483 541.352 971.376 541.245L937.616 575.367C956.827 594.545 987.877 594.449 1006.97 575.153L972.999 541.24V541.24ZM971.376 541.245L909.163 479.138L875.403 513.259L937.616 575.367L971.376 541.245ZM909.117 479.092C889.898 460.008 858.919 460.135 839.859 479.4L873.829 513.313C873.935 513.206 874.061 513.121 874.199 513.062C874.338 513.004 874.486 512.973 874.637 512.973C874.787 512.972 874.936 513.001 875.076 513.058C875.215 513.114 875.341 513.198 875.448 513.304L909.117 479.092V479.092ZM839.859 479.4C820.845 498.617 820.863 529.628 839.838 548.828L873.826 514.935C873.613 514.719 873.495 514.427 873.495 514.124C873.496 513.82 873.616 513.529 873.829 513.313L839.859 479.4V479.4ZM980.087 621.016L873.712 514.821L839.952 548.942L946.328 655.137L980.087 621.016V621.016ZM980.302 690.68C999.394 671.384 999.298 640.194 980.087 621.016L946.328 655.137C946.777 655.586 946.779 656.316 946.333 656.768L980.302 690.68ZM910.95 690.894C930.161 710.072 961.211 709.976 980.302 690.68L946.333 656.768C946.227 656.876 946.101 656.961 945.962 657.019C945.823 657.078 945.674 657.108 945.523 657.108C945.372 657.109 945.222 657.079 945.083 657.022C944.944 656.964 944.817 656.88 944.71 656.773L910.95 690.894V690.894ZM631.019 411.438L910.95 690.894L944.71 656.773L664.778 377.316L631.019 411.438V411.438ZM664.779 377.317L662.474 375.015L628.712 409.135L631.018 411.437L664.779 377.317ZM662.473 375.014C603.043 315.685 602.744 219.196 661.807 159.5L627.837 125.588C550.13 204.128 550.522 331.077 628.713 409.136L662.473 375.014V375.014ZM661.807 159.5C720.869 99.8042 816.927 99.5072 876.357 158.837L910.117 124.715C831.925 46.6562 705.544 47.0472 627.837 125.588L661.807 159.5ZM876.357 158.837L1104.7 386.794L1138.46 352.673L910.117 124.715L876.357 158.837V158.837ZM1104.6 352.777V352.778L1138.57 386.69L1104.6 352.777V352.777ZM1156.35 370.534L1138.46 352.673L1104.7 386.795L1122.59 404.655L1156.35 370.534V370.534ZM1156.57 440.198C1175.66 420.902 1175.56 389.712 1156.35 370.534L1122.59 404.655C1123.04 405.104 1123.04 405.834 1122.6 406.286L1156.57 440.198V440.198ZM1087.22 440.412C1106.43 459.59 1137.48 459.494 1156.57 440.198L1122.6 406.286C1122.49 406.394 1122.37 406.479 1122.23 406.537C1122.09 406.596 1121.94 406.626 1121.79 406.626C1121.64 406.627 1121.49 406.597 1121.35 406.54C1121.21 406.482 1121.08 406.398 1120.97 406.291L1087.22 440.412V440.412ZM1069.32 422.552L1087.22 440.412L1120.97 406.291L1103.08 388.43L1069.32 422.552V422.552ZM1103.08 388.43L1036.49 321.95L1002.73 356.071L1069.32 422.552L1103.08 388.43V388.43ZM1036.49 321.95C1017.28 302.772 986.229 302.868 967.137 322.164L1001.11 356.076C1001.21 355.969 1001.34 355.884 1001.48 355.825C1001.62 355.767 1001.77 355.737 1001.92 355.736C1002.07 355.736 1002.22 355.765 1002.36 355.823C1002.5 355.88 1002.62 355.965 1002.73 356.071L1036.49 321.95ZM967.137 322.164C948.105 341.4 948.141 372.454 967.173 391.648L1001.11 357.701C1000.89 357.484 1000.77 357.193 1000.77 356.889C1000.77 356.584 1000.89 356.293 1001.11 356.076L967.137 322.164V322.164ZM1232.32 588.526L1001.02 357.614L967.26 391.735L1198.56 622.648L1232.32 588.526V588.526Z" fill="#002E4D"/>
</g>
</g>
<defs>
<clipPath id="clip0">
<rect width="1063" height="1064" fill="white"/>
</clipPath>
</defs>
</svg>
